<svg width="284" height="40" viewBox="0 0 284 40" fill="none" xmlns="http://www.w3.org/2000/svg">
<rect x="0.5" y="0.5" width="283" height="39" rx="19.5" fill="#F1F1F1" stroke="#ACACAC"/>
<path d="M114.031 26.044V24.896H107.031V23.636H113.667V20.122H105.603V21.27H112.309V22.516H105.673V26.044H114.031ZM113.667 19.478V13.052H112.295V19.478H113.667ZM106.639 13.234C104.539 13.234 103.433 14.606 103.433 15.894V16.454C103.433 17.742 104.539 19.114 106.639 19.114C108.739 19.114 109.845 17.742 109.845 16.454V15.894C109.845 14.606 108.739 13.234 106.639 13.234ZM106.639 17.924C105.435 17.924 104.763 17.168 104.763 16.37V15.978C104.763 15.18 105.435 14.438 106.639 14.438C107.843 14.438 108.515 15.194 108.515 15.978V16.37C108.515 17.168 107.843 17.924 106.639 17.924ZM122.378 20.206V13.71H121.02V15.936H117.702V13.71H116.344V20.206H122.378ZM127.74 16.664H125.906V13.052H124.534V22.264H125.906V17.868H127.74V16.664ZM119.41 21.634H118.024V25.82H126.256V24.616H119.41V21.634ZM117.702 17.098H121.02V19.03H117.702V17.098ZM140.734 22.124C139.586 22.236 138.522 22.32 137.192 22.362V21.102C138.69 20.864 139.558 19.94 139.558 18.96V18.428C139.558 17.294 138.396 16.23 136.422 16.23C134.448 16.23 133.286 17.294 133.286 18.428V18.96C133.286 19.982 134.21 20.934 135.82 21.13V22.404C134.826 22.432 133.678 22.432 132.278 22.432V23.608C136.702 23.608 138.508 23.524 140.846 23.3L140.734 22.124ZM142.862 25.96V13.052H141.49V25.96H142.862ZM140.09 14.508H137.094V12.954H135.722V14.508H132.628V15.698H140.09V14.508ZM136.422 20.024C135.26 20.024 134.63 19.436 134.63 18.848V18.54C134.63 17.952 135.246 17.364 136.422 17.364C137.584 17.364 138.214 17.952 138.214 18.54V18.848C138.214 19.436 137.598 20.024 136.422 20.024ZM148.954 18.134C150.928 18.134 152.132 17.084 152.132 15.936V15.488C152.132 14.34 150.928 13.29 148.954 13.29C146.98 13.29 145.776 14.34 145.776 15.488V15.936C145.776 17.084 146.98 18.134 148.954 18.134ZM155.478 23.048V13.052H154.106V20.738H151.376V21.9H154.106V23.048H155.478ZM148.408 22.376H147.022V25.834H155.744V24.644H148.408V22.376ZM149.5 21.858V19.968C150.858 19.912 152.076 19.828 153.266 19.702L153.168 18.54C150.102 18.792 148.03 18.862 144.936 18.848V20.052C146.084 20.052 147.148 20.038 148.128 20.01V21.858H149.5ZM148.954 16.972C147.764 16.972 147.092 16.398 147.092 15.852V15.572C147.092 15.026 147.764 14.466 148.954 14.466C150.144 14.466 150.816 15.026 150.816 15.572V15.852C150.816 16.398 150.144 16.972 148.954 16.972ZM169.536 17.826H167.548V13.052H166.162V25.96H167.548V19.03H169.536V17.826ZM158.434 23.118C163.544 20.024 163.712 19.254 163.712 16.706V14.256H157.958V15.446H162.34V16.692C162.34 18.68 162.172 19.394 157.706 22.012L158.434 23.118ZM179.506 20.332V21.942H174.2V20.332H172.828V25.96H180.878V20.332H179.506ZM173.948 13.5C171.82 13.5 170.742 14.9 170.742 16.202V16.734C170.742 18.036 171.82 19.436 173.948 19.436C176.076 19.436 177.154 18.036 177.154 16.734V16.202C177.154 14.9 176.076 13.5 173.948 13.5ZM173.948 18.246C172.758 18.246 172.072 17.434 172.072 16.664V16.272C172.072 15.502 172.758 14.704 173.948 14.704C175.138 14.704 175.824 15.502 175.824 16.272V16.664C175.824 17.434 175.138 18.246 173.948 18.246ZM180.878 19.702V13.052H179.506V19.702H180.878ZM174.2 24.784V23.104H179.506V24.784H174.2Z" fill="#4D4D4D"/>
</svg>
